<?xml version="1.0" standalone="no"?>
<!DOCTYPE svg PUBLIC "-//W3C//DTD SVG 20010904//EN"
 "http://www.w3.org/TR/2001/REC-SVG-20010904/DTD/svg10.dtd">
<svg version="1.0" xmlns="http://www.w3.org/2000/svg"
 width="1280.000000pt" height="1280.000000pt" viewBox="0 0 1280.000000 1280.000000"
 preserveAspectRatio="xMidYMid meet">
<metadata>
Created by potrace 1.11, written by Peter Selinger 2001-2013
</metadata>
<g transform="translate(0.000000,1280.000000) scale(0.100000,-0.100000)"
fill="#000000" stroke="none">
<path d="M7880 9469 c-64 -10 -92 -17 -136 -35 -22 -9 -40 -16 -41 -15 -11 5
-23 -1 -18 -8 3 -6 -4 -8 -16 -6 -12 2 -19 1 -15 -2 3 -4 -12 -15 -34 -25 -22
-10 -40 -23 -40 -28 0 -6 -6 -10 -13 -10 -14 0 -107 -88 -107 -102 0 -5 -4 -7
-8 -4 -4 3 -16 -11 -27 -30 -10 -19 -22 -34 -27 -34 -5 0 -6 -4 -3 -10 3 -5 2
-10 -4 -10 -6 0 -13 -11 -17 -25 -3 -14 -10 -25 -16 -25 -5 0 -6 -4 -3 -10 3
-5 2 -10 -3 -10 -5 0 -9 -6 -10 -12 -3 -30 -29 -108 -34 -103 -3 3 -4 -8 -2
-25 2 -18 0 -29 -6 -25 -6 4 -10 -672 -10 -1870 0 -1374 3 -1874 11 -1869 8 5
8 1 0 -13 -6 -13 -7 -23 -1 -29 5 -5 11 -23 14 -39 4 -33 12 -61 27 -87 5 -10
9 -25 9 -33 0 -8 4 -15 8 -15 4 0 13 -15 20 -34 7 -18 21 -41 32 -51 11 -10
20 -22 20 -26 0 -4 18 -25 39 -47 22 -22 37 -43 33 -48 -4 -4 -2 -4 4 -1 5 3
28 -10 49 -29 21 -19 45 -34 52 -34 8 0 16 -7 19 -15 4 -8 11 -15 18 -15 6 0
28 -9 48 -19 19 -11 39 -17 42 -13 4 3 10 1 14 -5 4 -6 21 -13 39 -16 17 -3
36 -8 42 -12 6 -3 73 -7 149 -9 77 -2 145 -7 152 -11 7 -5 11 -4 7 1 -4 8 466
12 483 4 3 -1 10 -1 15 0 6 2 46 4 91 5 l81 1 0 -582 c0 -320 3 -586 6 -591 4
-7 283 -10 758 -9 708 1 752 2 755 19 1 9 -3 17 -9 17 -8 0 -9 3 -1 8 13 9 13
165 -1 174 -7 5 -7 8 0 8 15 0 14 310 0 310 -6 0 -6 3 1 8 14 9 14 304 -1 314
-7 5 -7 8 0 8 15 0 15 300 0 300 -5 0 -4 4 2 8 17 11 195 8 212 -3 8 -5 12 -4
8 1 -8 13 416 12 425 -1 5 -7 8 -6 8 1 0 6 20 11 48 10 64 0 138 12 179 29 18
8 36 14 38 15 3 0 7 1 10 1 3 1 8 2 13 3 23 4 143 81 179 114 23 22 45 37 48
34 3 -3 5 2 5 11 0 10 4 17 9 17 5 0 28 28 50 63 23 34 45 67 49 72 14 17 51
133 44 139 -3 3 -1 6 5 6 5 0 10 6 10 13 1 6 5 32 9 57 4 25 7 874 7 1887 0
1440 -2 1845 -12 1856 -7 10 -8 17 -2 21 6 4 4 17 -5 34 -7 15 -14 32 -14 37
0 32 -22 85 -33 79 -7 -4 -9 -4 -5 1 10 11 -36 97 -75 139 -19 19 -32 37 -31
39 2 2 -8 15 -23 28 -91 79 -163 125 -238 149 -22 7 -45 16 -51 21 -6 5 -13 6
-17 3 -3 -3 -16 0 -29 7 -18 11 -337 13 -1618 14 -877 0 -1615 -3 -1640 -6z"/>
<path d="M2767 9385 c-21 -7 -47 -21 -57 -30 -17 -16 -16 -18 24 -58 54 -55
74 -133 71 -279 l-2 -104 -55 -74 c-186 -255 -259 -472 -218 -653 12 -57 44
-122 73 -154 20 -22 17 -26 -15 -23 -2 0 -34 -10 -73 -23 -112 -38 -276 -122
-330 -169 -105 -90 -239 -237 -300 -328 -113 -168 -157 -301 -156 -464 0 -133
34 -250 104 -359 20 -31 34 -63 31 -71 -3 -7 -24 -16 -47 -19 -67 -9 -93 -16
-177 -46 -298 -109 -487 -316 -564 -618 -22 -85 -26 -114 -26 -217 -1 -178 68
-361 183 -485 36 -39 37 -41 15 -42 -385 -13 -650 -168 -820 -479 -37 -69 -93
-222 -99 -275 -1 -5 -5 -19 -9 -31 -9 -23 -21 -116 -25 -184 -4 -99 39 -245
106 -356 119 -195 398 -357 689 -399 24 -4 47 -8 50 -10 15 -9 200 -20 345
-20 137 0 296 9 357 20 9 2 48 7 85 10 37 4 75 8 83 10 8 2 40 7 70 10 30 3
62 8 70 10 8 2 40 7 70 10 30 4 74 11 98 16 24 5 46 7 50 5 21 -13 166 -21
564 -31 130 -4 259 -8 286 -10 27 -2 114 -6 192 -10 78 -4 161 -9 184 -11 38
-3 169 -9 406 -19 611 -25 1466 -26 1645 -1 17 3 57 7 90 11 301 30 523 108
643 225 101 99 210 304 247 465 31 134 23 315 -19 434 -89 247 -314 469 -663
653 -81 43 -100 57 -92 68 18 29 48 141 55 207 27 253 -23 515 -135 708 -19
33 -68 94 -110 135 -115 114 -242 170 -424 186 -66 6 -78 10 -73 23 59 185 78
350 56 478 -25 152 -207 388 -380 491 -115 69 -215 96 -347 93 l-73 -1 11 27
c46 121 48 321 5 467 -97 327 -376 648 -842 969 -164 113 -405 250 -498 284
-128 46 -261 62 -329 38z"/>
</g>
</svg>
